<svg width="43" height="36" viewBox="0 0 43 36" fill="none" xmlns="http://www.w3.org/2000/svg">
<path d="M21.0613 1.28791C21.0613 2.22228 20.7583 3.33342 19.8744 5.5052C19.2431 7.14666 18.6117 8.96489 18.5107 9.59622C18.1067 11.768 18.9905 14.1418 20.8845 16.0105L22.0462 17.1469L21.6421 16.0358C20.9855 14.1418 21.1371 11.667 22.1472 8.61135C22.627 7.12141 23.0311 5.42944 23.0311 4.82336C23.0311 3.45969 22.4502 1.71721 21.6421 0.757592L21.036 -5.30481e-06L21.0613 1.28791Z" fill="#F35C00"/>
<path d="M16.1117 8.00529C14.7228 9.79827 14.2935 12.2226 15.0511 13.7125C15.4551 14.4701 17.0966 16.0358 17.9805 16.5156C18.4855 16.7934 18.4855 16.7177 17.8037 15.7075C17.3996 15.1267 16.8441 14.1166 16.5915 13.4852C16.036 12.0458 16.0107 9.39422 16.541 8.10631C17.0461 6.94466 16.9198 6.9194 16.1117 8.00529Z" fill="#F35C00"/>
<path d="M41.4762 14.7182C41.2527 14.8116 40.3213 15.0173 39.4271 15.1669C38.533 15.3164 37.4339 15.5595 36.9682 15.6903C36.2603 15.9147 36.1299 16.0268 36.0181 16.5503C35.9436 16.8868 35.9436 17.1486 35.9995 17.1486C36.0368 17.1486 36.6515 16.9429 37.3407 16.6999C38.03 16.4381 39.1291 16.139 39.7811 16.0268C40.4331 15.9147 41.1596 15.7651 41.4017 15.709C41.6439 15.6529 41.8116 15.6903 41.8116 15.8212C41.8116 15.9521 41.3086 16.8868 40.7125 17.9151C40.1164 18.9433 39.3526 20.439 39.0173 21.2616C37.9927 23.7855 36.7633 24.4398 34.9377 23.4116C34.5092 23.1498 34.0994 22.9442 34.0622 22.9442C33.8945 22.9442 33.4288 24.1033 33.5406 24.2715C33.7641 24.6455 34.9004 25.0007 35.7946 25.0007C37.5829 24.982 39.1477 23.7668 39.5762 22.0468C39.8369 21.0185 40.2281 20.2333 41.7557 17.672C42.4077 16.5503 42.9665 15.4286 42.9851 15.1482C43.0224 14.6995 42.9479 14.6247 42.4635 14.5873C42.1655 14.5686 41.7184 14.6247 41.4762 14.7182Z" fill="#999696"/>
<path d="M0.176773 15.5308C1.06064 23.132 6.16179 29.117 13.4347 31.0615C15.657 31.6676 20.0511 31.6676 22.2734 31.0615C29.521 29.0917 34.6222 23.132 35.506 15.6318L35.6323 14.3691L35.0262 15.6318C33.4605 18.8389 30.8342 20.5561 27.223 20.7582C24.5461 20.9097 23.2077 20.5309 18.4601 18.2834C12.4498 15.4297 8.63661 14.3944 2.92938 14.0661L0 13.9145L0.176773 15.5308Z" fill="#999696"/>
<path d="M1.33824 31.516C1.54026 31.6928 6.06059 32.9049 8.00509 33.2837C14.7982 34.5969 23.5863 34.3949 29.9754 32.7787C32.6017 32.0968 34.1927 31.617 34.0664 31.516C34.0159 31.4655 32.0462 31.6423 29.6976 31.8948C21.3135 32.8544 12.6012 32.8039 4.74743 31.7685C1.89381 31.415 1.16147 31.3392 1.33824 31.516Z" fill="#999696"/>
<path d="M8.83864 34.6979C10.4548 35.3798 14.4954 35.9606 17.854 35.9606C21.238 35.9606 25.7836 35.304 26.7937 34.6727C27.0967 34.4959 27.0462 34.4707 26.5664 34.5717C22.5764 35.3798 14.6721 35.3798 9.14168 34.5717C8.38408 34.4454 8.33357 34.4707 8.83864 34.6979Z" fill="#999696"/>
</svg>
