<svg width="13" height="16" viewBox="0 0 13 16" fill="none" xmlns="http://www.w3.org/2000/svg">
<path d="M6.14618 0.524917L11.794 2.68439C11.9269 2.75083 12.0266 2.88372 12.0266 3.04983V9.49502C12.0266 9.52824 12.0266 9.59468 11.9934 9.62791C10.897 12.3854 8.80399 14.2458 6.1794 15.4751C6.07973 15.5083 5.94684 15.5083 5.84718 15.4751C3.22259 14.2126 1.09635 12.3522 0.0332226 9.62791C0 9.59468 0 9.52824 0 9.49502V3.04983C0 2.88372 0.13289 2.71761 0.265781 2.68439L5.8804 0.524917C5.98007 0.491694 6.07973 0.491694 6.14618 0.524917ZM11.2625 3.31561L6.01329 1.28904L0.76412 3.31561V9.42857C1.7608 11.887 3.65448 13.5482 6.01329 14.711C8.37209 13.5482 10.2658 11.887 11.2625 9.42857V3.31561Z" fill="#9CA3AF"/>
<path d="M3.65583 8.26536C3.48972 8.13247 3.48972 7.86669 3.65583 7.7338C3.78873 7.56769 4.02128 7.56769 4.1874 7.7338L5.31696 8.86337L7.8751 6.33845C8.00799 6.17234 8.24055 6.17234 8.40666 6.33845C8.53955 6.47134 8.53955 6.7039 8.40666 6.87001L5.58274 9.66071C5.44985 9.82682 5.18407 9.82682 5.05118 9.66071L3.65583 8.26536Z" fill="#9CA3AF"/>
</svg>
